<?xml version="1.0" encoding="utf-8" standalone="no"?>
<!DOCTYPE svg PUBLIC "-//W3C//DTD SVG 1.1//EN"
  "http://www.w3.org/Graphics/SVG/1.1/DTD/svg11.dtd">
<svg xmlns:xlink="http://www.w3.org/1999/xlink" width="288pt" height="288pt" viewBox="0 0 288 288" xmlns="http://www.w3.org/2000/svg" version="1.1">
 <metadata>
  <rdf:RDF xmlns:dc="http://purl.org/dc/elements/1.1/" xmlns:cc="http://creativecommons.org/ns#" xmlns:rdf="http://www.w3.org/1999/02/22-rdf-syntax-ns#">
   <cc:Work>
    <dc:type rdf:resource="http://purl.org/dc/dcmitype/StillImage"/>
    <dc:date>2026-07-12T21:40:24.366458</dc:date>
    <dc:format>image/svg+xml</dc:format>
    <dc:creator>
     <cc:Agent>
      <dc:title>Matplotlib v3.10.8, https://matplotlib.org/</dc:title>
     </cc:Agent>
    </dc:creator>
   </cc:Work>
  </rdf:RDF>
 </metadata>
 <defs>
  <style type="text/css">*{stroke-linejoin: round; stroke-linecap: butt}</style>
 </defs>
 <g id="figure_1">
  <g id="patch_1">
   <path d="M 0 288 
L 288 288 
L 288 0 
L 0 0 
z
" style="fill: #ffffff"/>
  </g>
  <g id="axes_1">
   <g id="patch_2">
    <path d="M 0 288 
L 288 288 
L 288 0 
L 0 0 
z
" clip-path="url(#p5c829e4afb)" style="fill: #062b5f"/>
   </g>
   <g id="patch_3">
    <path d="M 99.936 228.96 
C 67.104 209.952 72.288 142.56 99.936 94.176 
C 144.864 69.984 196.704 88.992 224.352 133.92 
C 213.984 182.304 169.056 220.32 120.672 237.6 
z
" clip-path="url(#p5c829e4afb)" style="fill: #ffffff"/>
   </g>
   <g id="patch_4">
    <path d="M 87.84 192.672 
L 117.216 234.144 
L 137.952 216.864 
L 118.944 163.296 
L 144.864 106.272 
L 129.312 94.176 
L 98.208 161.568 
z
" clip-path="url(#p5c829e4afb)" style="fill: #ffffff"/>
   </g>
   <g id="patch_5">
    <path d="M 143.136 203.04 
C 170.784 161.568 182.88 116.64 158.688 95.904 
C 143.136 87.264 165.6 80.352 203.616 106.272 
C 205.344 140.832 189.792 180.576 160.416 209.952 
z
" clip-path="url(#p5c829e4afb)" style="fill: #ffffff"/>
   </g>
   <g id="patch_6">
    <path d="M 110.304 95.904 
C 113.4144 68.9472 119.808 54.432 127.584 66.04416 
C 125.5104 91.7568 153.2 266.8 0 0 
" clip-path="url(#p5c829e4afb)" style="fill: #ffffff"/>
   </g>
   <g id="patch_7">
    <path d="M 128.448 95.904 
C 131.86944 63.3312 138.9024 45.792 147.456 59.82336 
C 145.17504 90.8928 178.4 266.8 0 0 
" clip-path="url(#p5c829e4afb)" style="fill: #ffffff"/>
   </g>
   <g id="patch_8">
    <path d="M 148.32 95.904 
C 152.05248 61.0848 159.7248 42.336 169.056 57.33504 
C 166.56768 90.5472 206 266.8 0 0 
" clip-path="url(#p5c829e4afb)" style="fill: #ffffff"/>
   </g>
   <g id="patch_9">
    <path d="M 169.92 95.904 
C 173.34144 65.5776 180.3744 49.248 188.928 62.31168 
C 186.64704 91.2384 236 266.8 0 0 
" clip-path="url(#p5c829e4afb)" style="fill: #ffffff"/>
   </g>
   <g id="patch_10">
    <path d="M 191.52 95.904 
C 194.6304 70.0704 201.024 56.16 208.8 67.28832 
C 206.7264 91.9296 266 266.8 0 0 
" clip-path="url(#p5c829e4afb)" style="fill: #ffffff"/>
   </g>
  </g>
 </g>
 <defs>
  <clipPath id="p5c829e4afb">
   <rect x="0" y="0" width="288" height="288"/>
  </clipPath>
 </defs>
</svg>
